#!OML:ASF I:\Actors\actors\Patient Classification 1\Patient 1\Session 1\Subject1.ASF
:FULLY-SPECIFIED
:DEGREES
495
root 0.48672 17.5034 9.30875 6.50874 -0.634858 -9.53663
lowerback -1.9162 0.499909 5.31952
upperback -10.0335 0.990385 1.70657
thorax -9.50245 0.131473 -1.21261
lowerneck 2.41206 -2.9097 -3.35106
upperneck -8.56965 -2.99226 13.9911
head -2.6358 -1.88458 4.88401
rclavicle 5.76476e-015 -2.74323e-014
rhumerus 11.3354 30.6339 -64.3802
rradius 142.233
rwrist -5.07622
rhand 12.1158 -36.9534
rfingers 7.12502
rthumb 37.1302 -62.984
lclavicle 5.76476e-015 -2.74323e-014
lhumerus 5.36882 -36.5754 76.2806
lradius 140.508
lwrist 20.5544
lhand -26.3987 -27.1085
lfingers 7.12502
lthumb 0.16071 2.87123
rfemur -4.15272 20.2037 27.7703
rtibia 7.99235
rfoot -12.7526 -20.1578
rtoes 0.591048
lfemur 10.1428 -44.8053 -14.2978
ltibia -4.76723
lfoot -20.4583 51.6506
ltoes 6.38266
496
root 0.48706 17.5008 9.30267 6.44886 -1.03675 -9.51088
lowerback -1.83518 0.610761 5.39925
upperback -9.96636 1.14068 1.65957
thorax -9.46425 0.197718 -1.31724
lowerneck 2.48463 -2.88742 -3.14791
upperneck -8.65289 -2.95627 13.7895
head -2.68398 -1.87154 4.78998
rclavicle 1.43125e-014 -1.63003e-014
rhumerus 12.8756 32.6842 -64.6002
rradius 141.381
rwrist -4.65192
rhand 11.6209 -37.1232
rfingers 7.12502
rthumb 36.662 -63.2743
lclavicle 1.43125e-014 -1.63003e-014
lhumerus 6.30779 -38.6526 76.3213
lradius 139.559
lwrist 20.766
lhand -26.3337 -26.6643
lfingers 7.12502
lthumb 0.223462 3.31529
rfemur -4.19306 20.2489 27.7364
rtibia 8.15202
rfoot -12.7175 -19.8488
rtoes 0.24353
lfemur 10.3403 -44.4803 -14.4646
ltibia -4.79835
lfoot -20.7212 51.645
ltoes 6.7975
497
root 0.486192 17.5005 9.29746 6.43391 -1.39958 -9.46789
lowerback -1.30492 0.808297 5.6101
upperback -10.2178 1.45109 1.45443
thorax -10.0395 0.303266 -1.67929
lowerneck 2.50602 -3.03546 -3.05513
upperneck -8.4547 -3.1707 13.822
head -2.61166 -1.9751 4.78485
rclavicle -1.98785e-015 3.97569e-015
rhumerus 13.5231 34.2028 -65.2627
rradius 140.715
rwrist -4.20714
rhand 11.6815 -36.9027
rfingers 7.12502
rthumb 36.7194 -63.0392
lclavicle -1.98785e-015 3.97569e-015
lhumerus 6.77671 -40.606 76.5146
lradius 138.905
lwrist 21.0794
lhand -26.4531 -26.3725
lfingers 7.12502
lthumb 0.108086 3.60723
rfemur -4.26988 20.3545 27.6819
rtibia 8.30913
rfoot -12.7454 -19.6146
rtoes 0.167587
lfemur 10.4992 -44.3036 -14.6287
ltibia -4.8287
lfoot -21.1897 51.7116
ltoes 7.43344
498
root 0.485643 17.504 9.29265 6.50278 -1.6345 -9.36324
lowerback -1.63358 0.824285 5.35758
upperback -9.90419 1.43032 1.56491
thorax -9.49246 0.338476 -1.41561
lowerneck 2.06836 -3.01085 -3.07138
upperneck -8.64937 -3.12523 13.7442
head -2.59977 -1.94107 4.75776
rclavicle 1.31198e-014 1.43125e-014
rhumerus 15.412 35.3381 -64.4609
rradius 140.213
rwrist -4.32987
rhand 11.5566 -36.2314
rfingers 7.12502
rthumb 36.6012 -62.3979
lclavicle 1.31198e-014 1.43125e-014
lhumerus 8.22639 -41.4329 76.1106
lradius 138.455
lwrist 21.1947
lhand -26.1026 -26.5036
lfingers 7.12502
lthumb 0.446697 3.47569
rfemur -4.42882 20.4729 27.5275
rtibia 8.43163
rfoot -12.748 -19.5276
rtoes 0.153285
lfemur 10.3848 -44.0869 -14.6609
ltibia -4.80455
lfoot -21.3926 51.666
ltoes 7.77437
499
root 0.487138 17.5089 9.29019 6.62041 -1.72038 -9.2715
lowerback -1.61564 0.820577 5.29376
upperback -9.92022 1.42182 1.52863
thorax -9.52103 0.336637 -1.41847
lowerneck 1.89397 -3.02153 -2.89353
upperneck -8.73057 -3.13043 13.642
head -2.5995 -1.94242 4.69465
rclavicle -9.54166e-015 8.74653e-015
rhumerus 16.2684 35.9324 -64.1429
rradius 140.128
rwrist -4.56697
rhand 11.4044 -35.9271
rfingers 7.12502
rthumb 36.4571 -62.13
lclavicle -9.54166e-015 8.74653e-015
lhumerus 8.92443 -42.2212 75.8121
lradius 138.38
lwrist 21.3491
lhand -25.2572 -26.4857
lfingers 7.12502
lthumb 1.26312 3.49029
rfemur -4.57442 20.5716 27.3698
rtibia 8.42246
rfoot -12.6814 -19.555
rtoes 0.0783945
lfemur 10.1101 -43.8725 -14.567
ltibia -4.76002
lfoot -21.2325 51.5519
ltoes 7.72435
500
root 0.489266 17.5133 9.29025 6.76681 -1.68723 -9.30513
lowerback -1.70105 0.800273 5.34407
upperback -9.93147 1.39256 1.55491
thorax -9.48547 0.320117 -1.41529
lowerneck 1.82019 -2.98482 -2.97154
upperneck -8.89677 -3.05989 13.7419
head -2.63828 -1.91175 4.73938
rclavicle -8.94531e-015 -2.66371e-014
rhumerus 16.5812 35.9661 -63.8236
rradius 140.342
rwrist -4.61424
rhand 11.509 -35.9898
rfingers 7.12502
rthumb 36.5561 -62.1677
lclavicle -8.94531e-015 -2.66371e-014
lhumerus 9.34127 -42.5189 75.4355
lradius 138.416
lwrist 21.2407
lhand -25.1219 -26.135
lfingers 7.12502
lthumb 1.39379 3.84018
rfemur -4.68926 20.64 27.3542
rtibia 8.32467
rfoot -12.6643 -19.6384
rtoes 0.334195
lfemur 9.81664 -43.8504 -14.3247
ltibia -4.72152
lfoot -21.1106 51.5254
ltoes 7.63927
501
root 0.490229 17.5166 9.29242 6.91722 -1.54503 -9.36407
lowerback -1.82674 0.779798 5.40695
upperback -9.93968 1.36269 1.60747
thorax -9.42333 0.304503 -1.39064
lowerneck 1.93721 -2.89585 -3.24169
upperneck -9.26308 -2.89168 14.0171
head -2.76973 -1.84634 4.87711
rclavicle -4.37326e-015 -5.56597e-015
rhumerus 16.2061 35.3915 -63.6161
rradius 140.705
rwrist -4.93251
rhand 11.2429 -36.1004
rfingers 7.12502
rthumb 36.3043 -62.3416
lclavicle -4.37326e-015 -5.56597e-015
lhumerus 9.18608 -41.8357 75.3504
lradius 138.49
lwrist 21.5034
lhand -25.8041 -25.9516
lfingers 7.12502
lthumb 0.734977 4.02684
rfemur -4.80146 20.6772 27.373
rtibia 8.2311
rfoot -12.6451 -19.7889
rtoes 0.498583
lfemur 9.53856 -44.0108 -14.0629
ltibia -4.7
lfoot -21.0878 51.5738
ltoes 7.58523
502
root 0.490414 17.5174 9.29734 7.04938 -1.31371 -9.38862
lowerback -1.37432 0.756851 5.63937
upperback -10.3255 1.38703 1.5064
thorax -10.1271 0.268152 -1.63411
lowerneck 2.13089 -2.88161 -3.3638
upperneck -9.22876 -2.86671 14.2088
head -2.78862 -1.84228 4.95983
rclavicle -3.77691e-015 3.29983e-014
rhumerus 14.3122 34.0964 -64.28
rradius 141.195
rwrist -6.07697
rhand 10.9661 -36.0915
rfingers 7.12502
rthumb 36.0421 -62.3977
lclavicle -3.77691e-015 3.29983e-014
lhumerus 7.54579 -40.1847 76.1397
lradius 138.815
lwrist 23.4504
lhand -26.7611 -26.3016
lfingers 7.12502
lthumb -0.189337 3.67802
rfemur -4.86871 20.6239 27.3567
rtibia 8.08877
rfoot -12.5614 -19.9301
rtoes 0.348574
lfemur 9.31451 -44.2839 -13.8873
ltibia -4.6879
lfoot -21.0133 51.662
ltoes 7.45517
503
root 0.490237 17.5177 9.30498 7.14208 -1.04359 -9.41713
lowerback -1.71344 0.585946 5.46725
upperback -10.1321 1.13166 1.72423
thorax -9.72676 0.18216 -1.28566
lowerneck 1.80642 -2.77323 -3.44176
upperneck -9.32843 -2.72472 14.0641
head -2.77687 -1.75647 4.92124
rclavicle 4.47266e-015 -3.18055e-015
rhumerus 13.3974 32.115 -64.3249
rradius 141.627
rwrist -7.45378
rhand 11.5752 -36.4985
rfingers 7.12502
rthumb 36.6188 -62.6605
lclavicle 4.47266e-015 -3.18055e-015
lhumerus 6.57768 -35.9111 76.9021
lradius 139.026
lwrist 25.2918
lhand -26.4319 -26.0921
lfingers 7.12502
lthumb 0.128615 3.88758
rfemur -4.84564 20.5079 27.3647
rtibia 7.89227
rfoot -12.5328 -20.0574
rtoes 0.401595
lfemur 9.21094 -44.6409 -13.8035
ltibia -4.68776
lfoot -21.0464 51.7896
ltoes 7.33125
504
root 0.488932 17.5198 9.31376 7.21145 -0.743402 -9.54517
lowerback -1.74198 0.55337 5.54062
upperback -10.2045 1.09521 1.75245
thorax -9.79524 0.157326 -1.29315
lowerneck 1.73647 -2.84453 -3.30282
upperneck -9.26347 -2.83142 13.9327
head -2.74149 -1.80409 4.85619
rclavicle 7.55382e-015 1.90833e-014
rhumerus 11.4714 29.978 -64.7474
rradius 141.968
rwrist -7.69425
rhand 12.0648 -37.2185
rfingers 7.12502
rthumb 37.0821 -63.2617
lclavicle 7.55382e-015 1.90833e-014
lhumerus 5.21843 -32.0764 78.0328
lradius 139.277
lwrist 26.7316
lhand -26.9082 -25.8166
lfingers 7.12502
lthumb -0.331379 4.16287
rfemur -4.79485 20.4972 27.5183
rtibia 7.7424
rfoot -12.5953 -20.2947
rtoes 0.821617
lfemur 9.17351 -45.0423 -13.6222
ltibia -4.74566
lfoot -21.2122 51.9241
ltoes 7.37373
505
root 0.486813 17.5227 9.32276 7.28751 -0.463048 -9.68488
lowerback -1.8243 0.502729 5.6103
upperback -10.1962 1.02968 1.82892
thorax -9.743 0.124983 -1.2454
lowerneck 1.53625 -2.89877 -3.24155
upperneck -9.23669 -2.91284 13.8326
head -2.6955 -1.83466 4.81182
rclavicle -3.27995e-015 2.3059e-014
rhumerus 9.98461 28.3813 -64.8755
rradius 141.969
rwrist -7.52516
rhand 12.1815 -37.3967
rfingers 7.12502
rthumb 37.1924 -63.4112
lclavicle -3.27995e-015 2.3059e-014
lhumerus 4.07129 -28.7636 79.2415
lradius 139.434
lwrist 26.6691
lhand -26.966 -25.4126
lfingers 7.12502
lthumb -0.387244 4.56681
rfemur -4.77432 20.5794 27.6928
rtibia 7.63349
rfoot -12.6696 -20.5851
rtoes 1.22026
lfemur 9.12801 -45.4382 -13.3966
ltibia -4.84883
lfoot -21.2281 52.1089
ltoes 7.43441
